<svg version="1.1" id="Layer_1" xmlns="http://www.w3.org/2000/svg" xmlns:xlink="http://www.w3.org/1999/xlink" x="0px" y="0px"
	 width="100%" viewBox="0 0 822 747" enable-background="new 0 0 822 747" xml:space="preserve">
<path fill="#000100" opacity="1.000000" stroke="none" 
	d="
M823.000000,259.000000 
	C823.000000,422.333344 823.000000,585.166687 823.000000,748.000000 
	C549.000000,748.000000 275.000000,748.000000 1.000000,748.000000 
	C1.000000,499.000000 1.000000,250.000000 1.000000,1.000000 
	C275.000000,1.000000 549.000000,1.000000 823.000000,1.000000 
	C823.000000,86.833336 823.000000,172.666672 823.000000,259.000000 
M211.967926,301.864624 
	C211.967926,301.864624 211.897476,301.763641 211.233994,301.620941 
	C210.775024,302.026978 210.316071,302.433014 209.943924,302.902710 
	C209.943924,302.902710 209.928955,302.796112 209.251083,302.583282 
	C208.459930,303.027466 207.668777,303.471619 206.969467,303.924683 
	C206.969467,303.924683 206.955246,303.833527 206.257202,303.925018 
	C205.089539,304.594971 203.921875,305.264893 202.185440,306.175293 
	C197.361389,308.378296 192.537338,310.581299 187.062653,312.886017 
	C185.997070,313.539764 184.931488,314.193542 183.958908,314.890991 
	C183.958908,314.890991 183.931992,314.791840 183.246811,314.634064 
	C182.457108,315.062653 181.667404,315.491241 180.970993,315.928070 
	C180.970993,315.928070 180.957214,315.835419 180.230515,315.915527 
	C178.116150,316.916962 176.001785,317.918396 173.979950,318.907043 
	C173.979950,318.907043 173.947464,318.819458 173.198654,318.904968 
	C169.810074,320.295349 166.421478,321.685730 162.308075,323.174347 
	C148.857635,328.246216 135.407196,333.318085 121.245796,338.561859 
	C120.470245,339.008911 119.694695,339.455933 119.003067,339.901123 
	C119.003067,339.901123 118.950356,339.835754 118.229378,339.659180 
	C117.120193,340.087128 116.011009,340.515045 114.983673,340.954865 
	C114.983673,340.954865 114.981583,340.872162 114.275032,340.897522 
	C113.472107,341.223022 112.669182,341.548523 111.958260,341.885956 
	C111.958260,341.885956 111.923096,341.800110 111.133530,341.884888 
	C106.714134,343.225830 102.294731,344.566803 97.971222,345.902374 
	C97.971222,345.902374 97.941612,345.811035 97.303841,345.880524 
	C96.885719,345.961609 96.467598,346.042694 95.303482,346.189301 
	C92.853043,346.891449 90.402603,347.593597 87.211632,348.358856 
	C79.476357,350.317535 71.741074,352.276245 63.205421,354.191132 
	C48.722260,356.877411 34.239098,359.563721 19.755934,362.250000 
	C20.912771,363.544495 22.003077,363.825226 23.093958,363.827454 
	C33.586510,363.849091 44.083187,363.988098 54.569782,363.730865 
	C58.754997,363.628174 62.918022,362.620941 68.010269,362.006744 
	C72.281845,361.760315 76.594109,361.802338 80.816460,361.206879 
	C89.381447,359.998962 97.881226,358.333801 106.439575,357.072083 
	C112.930244,356.115143 119.469986,355.491058 126.780869,354.702637 
	C137.168823,352.428833 147.556763,350.155060 158.718765,347.893402 
	C166.160660,345.886627 173.602539,343.879852 181.571884,341.858765 
	C181.794235,341.590546 182.016602,341.322327 182.620102,341.089996 
	C182.620102,341.089996 182.994873,341.011780 183.786728,341.115845 
	C186.891663,340.103485 189.996613,339.091095 193.007782,338.092285 
	C193.007782,338.092285 193.038040,338.182068 193.838272,338.150604 
	C200.632950,335.787567 207.427612,333.424530 214.619568,331.078400 
	C214.619568,331.078400 215.006012,330.984650 215.635239,331.089203 
	C216.129303,330.749115 216.623367,330.409027 217.028091,330.043945 
	C217.028091,330.043945 217.019073,330.136261 217.817245,330.093475 
	C221.255295,328.788086 224.693344,327.482697 228.009506,326.136993 
	C228.009506,326.136993 228.094574,326.233124 228.792511,326.416504 
	C229.568390,325.995300 230.344269,325.574097 231.022400,325.158203 
	C231.022400,325.158203 231.091293,325.227753 231.858032,325.366547 
	C234.299957,324.261749 236.741882,323.156921 239.598969,322.059448 
	C239.598969,322.059448 240.007233,321.983765 240.688110,322.138824 
	C241.498169,321.785980 242.308243,321.433136 243.026016,321.078613 
	C243.026016,321.078613 243.046051,321.168701 243.811203,321.091003 
	C249.255661,318.777649 254.700119,316.464294 260.053864,314.189514 
	C260.053864,314.189514 260.117920,314.264465 260.754395,314.314484 
	C261.159485,314.184662 261.564545,314.054840 262.696320,313.879517 
	C269.055267,311.011139 275.414185,308.142761 282.466400,305.136230 
	C283.023682,304.791809 283.580963,304.447388 284.035370,304.109863 
	C284.035370,304.109863 284.069855,304.207062 284.761322,304.148560 
	C285.891083,303.491272 287.020844,302.833954 288.071991,302.097900 
	C288.071991,302.097900 288.074249,302.209167 288.756378,302.333862 
	C289.542267,301.916870 290.328156,301.499847 291.022583,301.093475 
	C291.022583,301.093475 291.054077,301.179993 291.787140,301.106812 
	C294.242706,299.799011 296.698242,298.491241 299.034668,297.121185 
	C299.034668,297.121185 299.105286,297.235565 299.758057,297.326447 
	C300.224731,296.941925 300.691376,296.557404 301.059387,296.171021 
	C301.059387,296.171021 301.110016,296.255737 301.771576,296.352539 
	C302.233246,295.963013 302.694916,295.573486 303.058533,295.124115 
	C303.058533,295.124115 303.089050,295.234833 303.768005,295.429626 
	C304.553070,294.987030 305.338165,294.544464 306.030334,294.118988 
	C306.030334,294.118988 306.071503,294.204041 306.812378,294.122131 
	C310.872528,292.076782 314.932709,290.031433 319.679291,287.833527 
	C374.650177,259.258209 425.918884,225.260452 471.706055,183.358887 
	C485.111664,171.090912 497.890503,158.138290 510.968140,145.511368 
	C512.584595,143.950607 514.037048,141.579315 516.714478,144.053772 
	C520.093811,147.176865 523.626770,150.146957 526.852417,153.420547 
	C533.833801,160.505768 540.608643,167.794556 547.595154,174.874588 
	C549.072510,176.371765 551.094482,177.331543 553.652466,179.075363 
	C555.174316,171.740784 556.536316,165.732224 557.649414,159.677917 
	C559.210754,151.185806 560.586853,142.659668 562.731689,133.802017 
	C564.153687,125.535194 565.575684,117.268364 567.058838,108.589127 
	C567.058838,108.589127 567.047363,108.172371 567.700745,107.775688 
	C567.857422,106.522820 568.014099,105.269951 568.066711,104.021622 
	C568.066711,104.021622 568.091858,104.122719 568.734863,103.672501 
	C569.785522,96.798683 570.836182,89.924866 572.211121,82.361481 
	C572.824890,79.303787 573.438660,76.246094 574.705933,72.770973 
	C576.095398,65.197868 577.484802,57.624767 579.160706,49.293770 
	C581.123535,37.899590 582.939392,26.477390 585.104187,15.121729 
	C586.405518,8.295686 586.094482,7.721427 579.187988,9.802521 
	C566.181274,13.721750 553.271484,17.963915 540.251648,21.837484 
	C532.215454,24.228384 524.050415,26.186228 515.266907,28.361332 
	C514.322876,28.883732 513.378906,29.406132 512.517029,29.809872 
	C512.517029,29.809872 512.406311,29.717270 511.488861,29.657751 
	C501.341125,32.471760 491.193420,35.285767 480.282806,38.120884 
	C471.171600,40.860073 462.060394,43.599262 452.218353,46.401394 
	C446.823822,47.960957 441.429260,49.520515 435.261108,51.079353 
	C433.806183,51.434429 432.343109,51.759361 430.897736,52.149765 
	C424.314209,53.928005 423.803009,55.931602 428.637817,60.984005 
	C429.212952,61.584969 429.825562,62.152130 430.443787,62.709484 
	C441.758453,72.910500 453.076660,83.107613 464.628845,93.517075 
	C454.336121,106.485786 444.758087,118.872360 434.828491,130.970398 
	C425.951996,141.785309 417.115479,152.689560 407.475708,162.805771 
	C397.572479,173.198456 387.135376,183.177719 376.182220,192.452545 
	C359.334076,206.719101 341.974030,220.393906 324.571289,233.987076 
	C316.651978,240.172806 308.172699,245.654221 299.827301,251.276810 
	C295.331268,254.305939 290.581482,256.958466 285.375183,259.977753 
	C285.207825,260.296600 285.040436,260.615448 284.974579,260.878937 
	C284.974579,260.878937 284.905762,260.786011 284.273010,260.736298 
	C283.800354,261.123291 283.327728,261.510254 282.945831,261.918213 
	C282.945831,261.918213 282.936371,261.825562 282.338715,261.951141 
	C282.171173,262.267517 282.003632,262.583862 281.948822,262.872437 
	C281.948822,262.872437 281.892548,262.770874 281.254181,262.674438 
	C280.783386,263.072784 280.312561,263.471130 279.938049,263.905212 
	C279.938049,263.905212 279.938812,263.802490 279.315582,263.854828 
	C278.834167,264.208923 278.352753,264.563019 277.954437,264.938507 
	C277.954437,264.938507 277.951935,264.852722 277.378387,264.995148 
	C277.201477,265.301331 277.024567,265.607513 276.960114,265.884186 
	C276.960114,265.884186 276.906311,265.781067 276.269501,265.730377 
	C275.795044,266.114166 275.320587,266.497955 274.944336,266.915588 
	C274.944336,266.915588 274.947144,266.811768 274.333130,266.884949 
	C273.851379,267.235626 273.369659,267.586334 272.972717,267.950775 
	C272.972717,267.950775 272.936401,267.872925 272.316681,268.014679 
	C271.492767,268.632294 270.668823,269.249908 269.936554,269.898621 
	C269.936554,269.898621 269.913544,269.804596 269.301758,269.913757 
	C269.142548,270.238953 268.983307,270.564148 268.924713,270.806763 
	C268.924713,270.806763 268.825073,270.722992 268.184723,270.641663 
	C267.458008,271.097473 266.731323,271.553284 265.324585,272.173279 
	C252.876389,279.397491 240.428207,286.621674 227.287766,293.913818 
	C226.485977,294.251434 225.684189,294.589081 224.965561,294.940674 
	C224.965561,294.940674 224.958527,294.856659 224.351700,294.985870 
	C224.187180,295.297211 224.022659,295.608551 223.968903,295.866119 
	C223.968903,295.866119 223.897980,295.765472 223.234940,295.609650 
	C222.778381,296.020294 222.321823,296.430969 221.970978,296.924500 
	C221.970978,296.924500 221.914825,296.802490 221.217270,296.613373 
	C220.103989,297.361786 218.990707,298.110199 217.969299,298.926117 
	C217.969299,298.926117 217.934967,298.817383 217.274048,298.577881 
	C216.482071,299.033020 215.690094,299.488129 214.979309,299.955780 
	C214.979309,299.955780 214.977203,299.873627 214.368317,299.942749 
	C213.875687,300.275665 213.383057,300.608582 212.971527,300.949646 
	C212.971527,300.949646 212.962311,300.868652 212.357574,300.981781 
	C212.190598,301.293610 212.023605,301.605438 211.967926,301.864624 
M273.993317,525.211609 
	C274.940857,517.484192 275.888428,509.756744 277.022705,501.147064 
	C276.958862,498.747589 276.895020,496.348083 276.954193,493.499146 
	C276.954193,493.499146 276.873779,493.040161 277.014191,492.607300 
	C277.014191,492.607300 277.041046,492.153015 277.711792,491.652313 
	C278.104309,484.452057 278.496826,477.251801 279.026947,469.266541 
	C279.064819,468.205261 279.102661,467.143982 279.793121,465.631561 
	C280.484131,454.441895 281.175140,443.252258 282.011017,431.623566 
	C282.011017,431.623566 282.044739,431.162506 282.738129,430.685425 
	C284.115234,413.131683 285.492340,395.577942 287.044312,377.354431 
	C287.014679,376.896484 286.985077,376.438538 287.110474,375.146362 
	C287.683563,366.441376 288.256653,357.736420 289.021210,348.196808 
	C289.419373,343.868042 289.817535,339.539246 290.306671,334.221588 
	C286.411041,335.424103 283.680023,336.043762 281.127075,337.095520 
	C272.200897,340.773010 263.454163,344.915527 254.418961,348.291748 
	C242.501556,352.744873 230.418976,356.772156 218.326035,360.734100 
	C209.123535,363.749023 199.813568,366.443542 190.511673,369.143585 
	C186.880219,370.197693 183.140045,370.877228 178.510834,371.520508 
	C175.424988,372.099854 172.332199,372.644867 169.255173,373.267792 
	C165.859436,373.955231 161.374939,373.666565 159.405258,375.740814 
	C157.489929,377.757751 158.170486,382.229980 157.683350,385.620087 
	C157.567322,386.427551 157.340530,387.219055 157.039932,388.904938 
	C156.501938,395.360626 155.937225,401.814209 155.431412,408.272430 
	C154.317383,422.496521 153.233078,436.722931 151.984268,451.737640 
	C151.741638,453.837738 151.499023,455.937836 151.088760,458.906067 
	C150.086029,471.924927 149.083298,484.943817 147.910919,498.800659 
	C147.269455,504.894958 146.546295,510.981995 146.002701,517.085022 
	C144.674988,531.990417 143.338165,546.896057 142.177597,561.815063 
	C140.957428,577.500732 139.937943,593.202087 138.180542,609.436829 
	C137.178421,622.127625 136.182495,634.818970 135.172424,647.509155 
	C134.177841,660.004761 133.168884,672.499268 132.039703,685.883850 
	C131.698532,694.359558 130.692886,702.879944 131.258484,711.294678 
	C131.613464,716.575928 134.328186,721.698547 136.605530,727.175903 
	C140.586349,730.861145 143.965775,735.482117 151.003479,735.966553 
	C178.308350,735.931213 205.613220,735.895813 233.712906,736.007690 
	C247.805466,735.263977 259.584778,719.944580 258.714508,705.677185 
	C259.421295,696.121033 260.128052,686.564941 261.001678,676.200134 
	C261.635986,668.480591 262.270294,660.761108 263.029968,652.423645 
	C263.032593,652.003479 263.035217,651.583252 263.504028,650.935974 
	C263.630707,650.636963 263.757355,650.338013 264.055634,649.125183 
	C264.390930,645.078857 264.795258,641.036865 265.044556,636.985229 
	C265.373474,631.638977 265.580750,626.285217 266.015289,620.134155 
	C266.636658,611.774719 267.257996,603.415344 268.018646,594.622131 
	C268.018646,594.622131 268.036835,594.166870 268.501434,593.938721 
	C268.626678,593.640076 268.751953,593.341431 269.044373,592.190186 
	C270.308899,577.436768 271.573456,562.683411 272.983124,547.064209 
	C273.267639,540.043457 273.552155,533.022766 273.993317,525.211609 
M709.984436,306.070648 
	C709.984436,304.668976 709.984436,303.267303 709.984436,301.378662 
	C687.513977,301.378662 665.639587,301.362122 643.765503,301.443512 
	C642.951721,301.446533 642.141418,302.403534 641.115479,303.841797 
	C640.855774,313.584290 640.596069,323.326813 640.166565,333.739716 
	C640.273071,334.637909 640.379578,335.536133 640.208618,336.974426 
	C640.452393,337.467682 640.696106,337.960968 640.192627,339.006500 
	C639.455994,352.000824 638.686279,364.993439 638.032654,377.991943 
	C637.965088,379.334656 638.589172,380.712158 638.987915,382.960785 
	C638.603149,387.226349 638.109619,391.485413 637.855652,395.758759 
	C637.276794,405.497467 636.549011,415.238922 636.395386,424.987396 
	C636.283630,432.080780 632.143188,436.134003 626.992310,439.772278 
	C625.784973,440.625122 624.468567,441.348724 623.361084,442.313904 
	C603.501038,459.621490 580.815063,471.661926 554.647888,478.739502 
	C553.408752,479.145416 552.169617,479.551331 550.998657,479.979401 
	C550.998657,479.979401 551.003052,479.907867 550.182434,479.785187 
	C547.838928,480.208649 545.495483,480.632080 543.151978,481.055511 
	C543.112183,481.620331 543.072388,482.185150 543.032593,482.749969 
	C544.841370,483.171356 546.648499,483.952179 548.459106,483.960052 
	C573.669617,484.069641 598.880615,484.062714 624.091431,484.123718 
	C626.060974,484.128479 628.029846,484.427490 630.397156,485.131866 
	C630.636047,488.327789 631.063538,491.522827 631.078125,494.719757 
	C631.120544,504.007782 631.283447,513.309143 630.875977,522.582214 
	C630.165466,538.753845 629.063660,554.908264 628.031860,571.982849 
	C628.031860,576.880981 628.031860,581.779053 628.031860,587.612000 
	C637.485718,587.612000 647.218567,587.612000 657.869263,587.839111 
	C671.126221,587.839111 684.383118,587.839111 698.147705,587.839111 
	C699.057495,566.812744 699.961548,545.917786 701.021179,524.111877 
	C701.363403,515.151123 701.705627,506.190369 702.355774,496.990875 
	C702.561340,496.741699 702.540649,496.513489 702.567688,495.548462 
	C702.562012,495.016357 702.556396,494.484253 702.821716,493.120361 
	C702.870972,491.081787 702.920227,489.043213 703.244934,486.457062 
	C703.838074,485.906616 704.431213,485.356201 705.957092,484.859100 
	C713.314453,484.854492 720.671875,484.849854 728.956909,484.955444 
	C756.475769,484.955444 783.994629,484.955444 811.850464,484.955444 
	C812.076660,481.544250 812.326172,477.781006 812.849731,473.272949 
	C813.201599,467.192963 813.553467,461.112946 814.040466,454.353149 
	C814.006287,453.893982 813.972046,453.434814 814.046631,452.122742 
	C814.700623,442.399750 815.433716,432.680664 815.910645,422.948944 
	C815.971497,421.707001 814.695984,420.399567 813.304993,418.990723 
	C812.559998,418.952789 811.815063,418.914856 810.559998,418.224792 
	C807.353394,418.449829 804.146729,418.674835 800.013550,418.956085 
	C794.360046,418.967896 788.706543,418.979736 782.597900,418.247620 
	C780.616028,418.161682 778.634521,418.012207 776.652161,417.999542 
	C753.443420,417.851105 730.234497,417.723175 706.628052,417.112762 
	C706.057373,416.062836 705.486755,415.012909 705.044006,413.114075 
	C705.412048,405.984039 705.804321,398.855103 706.140442,391.723572 
	C706.402527,386.162659 706.594849,380.598480 706.979248,374.119659 
	C707.356689,361.101990 707.734131,348.084290 708.676697,334.696259 
	C708.753845,333.809814 708.830933,332.923401 709.049927,331.351196 
	C709.006653,330.888489 708.963440,330.425812 709.022278,329.039246 
	C708.968262,324.049835 708.914185,319.060455 709.012207,313.443298 
	C709.018127,313.012939 709.024048,312.582611 709.478577,311.927826 
	C709.597778,311.639404 709.716919,311.350983 709.960144,310.504608 
	C709.927979,310.316833 709.895874,310.129028 709.982605,309.205322 
	C709.935486,308.464325 709.888306,307.723328 709.984436,306.070648 
M633.973511,116.462044 
	C617.006592,104.169693 598.631348,94.760445 578.362976,89.036026 
	C575.571777,103.061760 572.762878,116.830948 570.104553,130.629135 
	C567.327576,145.042847 564.499207,159.452133 562.113647,173.932602 
	C561.345276,178.596588 560.545776,182.969482 555.703613,184.608994 
	C550.901794,186.234879 547.152527,183.503677 543.858582,180.259079 
	C534.204529,170.749557 524.558044,161.232346 514.915649,151.725143 
	C500.919830,164.742279 487.311310,177.399216 473.234528,190.491669 
	C495.046844,193.724457 513.426208,202.153046 529.000549,216.499557 
	C547.767517,233.786942 556.034851,256.005737 557.824890,280.713226 
	C559.091431,298.194519 556.151855,315.284515 550.109802,331.931824 
	C535.967957,370.895599 497.769318,399.568909 454.503876,399.093140 
	C410.015869,398.603912 365.518280,398.985016 321.024872,399.005432 
	C314.979218,399.008209 312.507141,401.482880 311.980377,407.551727 
	C311.309723,415.278717 310.567841,423.000854 309.740387,430.712616 
	C308.547791,441.827698 307.211639,452.927368 306.009857,464.041504 
	C304.981049,473.556213 304.348572,483.123779 303.002716,492.591461 
	C301.599976,502.459076 305.177765,507.092896 315.206451,506.984283 
	C341.113861,506.703735 367.023712,506.484863 392.924469,505.887817 
	C398.836517,505.751495 401.994720,507.113800 404.789673,513.033020 
	C419.800049,544.821960 435.459106,576.305786 450.999603,607.843018 
	C471.689941,649.831116 492.445618,691.787109 513.345520,733.670898 
	C514.129456,735.241943 516.721558,736.869080 518.465576,736.863220 
	C566.581299,736.702026 614.696228,736.333435 662.811157,735.972778 
	C663.197205,735.969849 663.580505,735.605042 663.903809,735.440369 
	C653.539246,715.094238 643.163025,694.962402 632.998230,674.724243 
	C608.102661,625.156921 583.325562,575.530151 558.454773,525.950378 
	C551.092957,511.274750 543.563843,496.683105 536.141113,482.037903 
	C533.850098,477.517792 534.815369,475.630249 539.383545,474.988312 
	C554.321533,472.889160 568.648071,468.609283 582.285095,462.213257 
	C596.640259,455.480438 609.522034,446.382751 621.337708,435.916046 
	C625.278748,432.424896 630.410339,429.555939 630.380432,422.581635 
	C630.336548,412.339325 631.523743,402.097382 631.973633,391.845978 
	C632.737000,374.452057 633.381287,357.052521 633.985779,339.652222 
	C634.423950,327.040253 634.692749,314.422485 635.085693,301.808807 
	C635.265381,296.041687 636.402771,295.005127 642.279053,295.002930 
	C660.761536,294.996033 679.244019,295.000366 699.005615,295.000366 
	C699.005615,289.030579 698.859619,283.307343 699.030762,277.593597 
	C699.788635,252.290543 698.317078,227.342529 691.251648,202.739914 
	C681.288452,168.046570 663.296814,139.018402 633.973511,116.462044 
M296.038879,245.486404 
	C298.988373,243.975464 300.795807,241.768402 301.025269,238.279617 
	C301.609436,229.398346 302.327637,220.525803 303.006042,211.650818 
	C303.421844,206.210938 303.823364,200.769470 304.306763,195.335419 
	C304.643036,191.555511 306.180756,189.801636 310.589813,189.872818 
	C329.245667,190.174042 347.910400,190.100281 366.568329,189.872238 
	C368.847443,189.844376 371.621735,188.599365 373.294189,187.003952 
	C394.199554,167.061340 414.528320,146.556213 432.564301,123.916611 
	C440.230469,114.293686 447.744263,104.549408 455.994568,94.007660 
	C451.688385,90.125381 447.311707,86.903519 443.912964,82.859718 
	C441.662445,80.182045 439.718933,78.920341 436.184143,78.924461 
	C353.710541,79.020515 271.236755,78.998245 188.763016,78.997780 
	C187.929947,78.997780 187.096710,78.986237 186.263855,78.999519 
	C182.919678,79.052856 181.270355,80.797852 180.988815,84.094612 
	C179.681946,99.397049 178.255524,114.689659 177.020142,129.997742 
	C175.598755,147.610489 174.329483,165.235519 173.001099,182.855743 
	C171.994598,196.206345 170.968658,209.555588 170.005737,222.909363 
	C168.579010,242.695038 167.235199,262.486755 165.781433,282.270416 
	C165.309952,288.686584 164.521973,295.079224 164.032776,301.494415 
	C163.667068,306.290375 163.548615,311.105164 163.292252,316.496033 
	C176.300751,310.623627 188.813461,305.258087 201.081650,299.382050 
	C233.752579,283.733612 265.277252,266.027557 296.038879,245.486404 
M327.500000,71.004356 
	C281.886810,71.004356 236.273590,71.004356 190.660385,71.004356 
	C190.661499,71.232468 190.662613,71.460579 190.663727,71.688690 
	C258.561554,71.688690 326.459412,71.688690 394.357239,71.688690 
	C394.357666,71.460854 394.358063,71.233025 394.358490,71.005188 
	C372.405670,71.005188 350.452820,71.005188 327.500000,71.004356 
M563.500000,742.997559 
	C588.269409,742.997559 613.038818,742.997559 637.808167,742.997559 
	C637.806091,742.770508 637.803955,742.543457 637.801880,742.316406 
	C596.596008,742.316406 555.390198,742.316406 514.184387,742.316406 
	C514.183960,742.543457 514.183533,742.770508 514.183167,742.997559 
	C530.288757,742.997559 546.394409,742.997559 563.500000,742.997559 
M190.500000,741.999329 
	C178.398468,741.999329 166.296951,741.999329 154.195419,741.999329 
	C154.199783,742.225037 154.204163,742.450684 154.208527,742.676392 
	C178.078278,742.676392 201.948029,742.676392 225.817780,742.676392 
	C225.817978,742.450867 225.818192,742.225281 225.818390,741.999756 
	C214.378922,741.999756 202.939468,741.999756 190.500000,741.999329 
M321.557800,195.962494 
	C318.549713,195.962494 315.541626,195.962494 312.533569,195.962494 
	C312.538849,196.347580 312.544128,196.732651 312.549408,197.117737 
	C328.815887,197.117737 345.082397,197.117737 361.348877,197.117737 
	C361.353058,196.736664 361.357269,196.355606 361.361450,195.974533 
	C348.421448,195.974533 335.481415,195.974533 321.557800,195.962494 
M696.020447,594.080872 
	C688.968079,594.080872 681.915771,594.080872 674.863403,594.080872 
	C674.870850,594.305542 674.878357,594.530151 674.885864,594.754822 
	C682.996704,594.754822 691.107544,594.754822 699.218384,594.754822 
	C699.221130,594.620789 699.223877,594.486755 699.226624,594.352722 
	C698.444702,594.283081 697.662781,594.213440 696.020447,594.080872 
z"/>
<path fill="#FFFFFF" opacity="1.000000" stroke="none" 
	d="
M634.223999,116.722626 
	C663.296814,139.018402 681.288452,168.046570 691.251648,202.739914 
	C698.317078,227.342529 699.788635,252.290543 699.030762,277.593597 
	C698.859619,283.307343 699.005615,289.030579 699.005615,295.000366 
	C679.244019,295.000366 660.761536,294.996033 642.279053,295.002930 
	C636.402771,295.005127 635.265381,296.041687 635.085693,301.808807 
	C634.692749,314.422485 634.423950,327.040253 633.985779,339.652222 
	C633.381287,357.052521 632.737000,374.452057 631.973633,391.845978 
	C631.523743,402.097382 630.336548,412.339325 630.380432,422.581635 
	C630.410339,429.555939 625.278748,432.424896 621.337708,435.916046 
	C609.522034,446.382751 596.640259,455.480438 582.285095,462.213257 
	C568.648071,468.609283 554.321533,472.889160 539.383545,474.988312 
	C534.815369,475.630249 533.850098,477.517792 536.141113,482.037903 
	C543.563843,496.683105 551.092957,511.274750 558.454773,525.950378 
	C583.325562,575.530151 608.102661,625.156921 632.998230,674.724243 
	C643.163025,694.962402 653.539246,715.094238 663.903809,735.440369 
	C663.580505,735.605042 663.197205,735.969849 662.811157,735.972778 
	C614.696228,736.333435 566.581299,736.702026 518.465576,736.863220 
	C516.721558,736.869080 514.129456,735.241943 513.345520,733.670898 
	C492.445618,691.787109 471.689941,649.831116 450.999603,607.843018 
	C435.459106,576.305786 419.800049,544.821960 404.789673,513.033020 
	C401.994720,507.113800 398.836517,505.751495 392.924469,505.887817 
	C367.023712,506.484863 341.113861,506.703735 315.206451,506.984283 
	C305.177765,507.092896 301.599976,502.459076 303.002716,492.591461 
	C304.348572,483.123779 304.981049,473.556213 306.009857,464.041504 
	C307.211639,452.927368 308.547791,441.827698 309.740387,430.712616 
	C310.567841,423.000854 311.309723,415.278717 311.980377,407.551727 
	C312.507141,401.482880 314.979218,399.008209 321.024872,399.005432 
	C365.518280,398.985016 410.015869,398.603912 454.503876,399.093140 
	C497.769318,399.568909 535.967957,370.895599 550.109802,331.931824 
	C556.151855,315.284515 559.091431,298.194519 557.824890,280.713226 
	C556.034851,256.005737 547.767517,233.786942 529.000549,216.499557 
	C513.426208,202.153046 495.046844,193.724457 473.234528,190.491669 
	C487.311310,177.399216 500.919830,164.742279 514.915649,151.725143 
	C524.558044,161.232346 534.204529,170.749557 543.858582,180.259079 
	C547.152527,183.503677 550.901794,186.234879 555.703613,184.608994 
	C560.545776,182.969482 561.345276,178.596588 562.113647,173.932602 
	C564.499207,159.452133 567.327576,145.042847 570.104553,130.629135 
	C572.762878,116.830948 575.571777,103.061760 578.362976,89.036026 
	C598.631348,94.760445 617.006592,104.169693 634.223999,116.722626 
z"/>
<path fill="#21AF69" opacity="1.000000" stroke="none" 
	d="
M138.830750,608.896545 
	C139.937943,593.202087 140.957428,577.500732 142.177597,561.815063 
	C143.338165,546.896057 144.674988,531.990417 146.002701,517.085022 
	C146.546295,510.981995 147.269455,504.894958 148.287155,498.139740 
	C149.108002,496.077728 149.817139,494.701782 149.953323,493.271332 
	C150.705017,485.375610 151.491638,477.475586 151.901276,469.558167 
	C152.098846,465.739441 151.496521,461.879303 151.256393,458.037933 
	C151.499023,455.937836 151.741638,453.837738 152.389465,451.142029 
	C153.179169,449.838104 153.849075,449.151886 153.905975,448.418182 
	C154.986801,434.480255 155.932739,420.531769 157.048492,406.596802 
	C157.519882,400.709351 158.317139,394.848022 158.980011,388.528198 
	C159.004929,386.757721 159.054474,385.432892 159.020401,384.110199 
	C158.897461,379.337891 160.043503,376.046265 165.823990,375.406677 
	C170.444916,374.895416 174.913300,373.005463 179.449387,371.727356 
	C183.140045,370.877228 186.880219,370.197693 190.511673,369.143585 
	C199.813568,366.443542 209.123535,363.749023 218.326035,360.734100 
	C230.418976,356.772156 242.501556,352.744873 254.418961,348.291748 
	C263.454163,344.915527 272.200897,340.773010 281.127075,337.095520 
	C283.680023,336.043762 286.411041,335.424103 290.306671,334.221588 
	C289.817535,339.539246 289.419373,343.868042 288.545654,348.716461 
	C287.373322,356.449493 286.587982,363.656189 286.046265,370.881195 
	C285.921173,372.548889 286.630249,374.279144 286.955475,375.980591 
	C286.985077,376.438538 287.014679,376.896484 286.572571,377.780396 
	C285.688690,381.377747 285.113220,384.537811 284.892395,387.722504 
	C283.888580,402.198700 282.984619,416.681854 282.044739,431.162506 
	C282.044739,431.162506 282.011017,431.623566 281.667694,432.142517 
	C280.556458,440.312012 279.671906,447.953461 279.073303,455.617249 
	C278.802643,459.082855 279.100555,462.592834 279.140503,466.082703 
	C279.102661,467.143982 279.064819,468.205261 278.684143,469.941284 
	C277.907928,477.795013 277.474487,484.973999 277.041046,492.153015 
	C277.041046,492.153015 277.014191,492.607300 276.793793,492.899292 
	C276.514923,493.285919 276.384613,493.427826 276.410400,493.467041 
	C276.526459,493.643494 276.686798,493.790802 276.831177,493.948608 
	C276.895020,496.348083 276.958862,498.747589 276.551636,501.680939 
	C275.060577,510.144012 274.040588,518.073242 273.009766,526.442017 
	C272.802979,528.682190 272.428589,530.484375 272.444824,532.283081 
	C272.491852,537.499451 272.695709,542.714478 272.838013,547.929993 
	C271.573456,562.683411 270.308899,577.436768 268.752502,592.744019 
	C268.232880,593.545288 268.091614,593.834961 268.036835,594.166870 
	C268.036835,594.166870 268.018646,594.622131 267.675598,595.134644 
	C266.891327,599.730103 266.289978,603.803894 266.052612,607.898743 
	C265.801392,612.233582 265.896484,616.588501 265.840332,620.934692 
	C265.580750,626.285217 265.373474,631.638977 265.044556,636.985229 
	C264.795258,641.036865 264.390930,645.078857 263.761597,649.710449 
	C263.234772,650.540527 263.091553,650.829651 263.037842,651.163086 
	C263.035217,651.583252 263.032593,652.003479 262.689636,653.013062 
	C261.574860,661.405457 260.800415,669.208496 260.016113,677.460449 
	C259.344391,687.300476 258.682465,696.691650 258.020569,706.082764 
	C259.584778,719.944580 247.805466,735.263977 233.015366,735.657227 
	C231.502411,735.206970 230.687073,735.020447 229.871582,735.019958 
	C204.520691,735.003357 179.169769,734.993103 153.818924,735.039185 
	C152.573975,735.041443 151.329956,735.560730 150.085510,735.839233 
	C143.965775,735.482117 140.586349,730.861145 136.307495,726.640503 
	C133.235733,718.727600 132.491013,711.089233 132.987427,703.271484 
	C133.374023,697.183472 133.660172,691.089111 133.995667,684.543518 
	C135.031372,669.910706 135.957565,655.723267 137.130829,641.556274 
	C137.893341,632.349060 139.096741,623.178711 139.902222,613.974365 
	C140.046494,612.325623 139.212860,610.591309 138.830750,608.896545 
z"/>
<path fill="#FFFFFF" opacity="1.000000" stroke="none" 
	d="
M295.752991,245.732361 
	C265.277252,266.027557 233.752579,283.733612 201.081650,299.382050 
	C188.813461,305.258087 176.300751,310.623627 163.292252,316.496033 
	C163.548615,311.105164 163.667068,306.290375 164.032776,301.494415 
	C164.521973,295.079224 165.309952,288.686584 165.781433,282.270416 
	C167.235199,262.486755 168.579010,242.695038 170.005737,222.909363 
	C170.968658,209.555588 171.994598,196.206345 173.001099,182.855743 
	C174.329483,165.235519 175.598755,147.610489 177.020142,129.997742 
	C178.255524,114.689659 179.681946,99.397049 180.988815,84.094612 
	C181.270355,80.797852 182.919678,79.052856 186.263855,78.999519 
	C187.096710,78.986237 187.929947,78.997780 188.763016,78.997780 
	C271.236755,78.998245 353.710541,79.020515 436.184143,78.924461 
	C439.718933,78.920341 441.662445,80.182045 443.912964,82.859718 
	C447.311707,86.903519 451.688385,90.125381 455.994568,94.007660 
	C447.744263,104.549408 440.230469,114.293686 432.564301,123.916611 
	C414.528320,146.556213 394.199554,167.061340 373.294189,187.003952 
	C371.621735,188.599365 368.847443,189.844376 366.568329,189.872238 
	C347.910400,190.100281 329.245667,190.174042 310.589813,189.872818 
	C306.180756,189.801636 304.643036,191.555511 304.306763,195.335419 
	C303.823364,200.769470 303.421844,206.210938 303.006042,211.650818 
	C302.327637,220.525803 301.609436,229.398346 301.025269,238.279617 
	C300.795807,241.768402 298.988373,243.975464 295.752991,245.732361 
z"/>
<path fill="#21B069" opacity="1.000000" stroke="none" 
	d="
M515.943176,28.338493 
	C524.050415,26.186228 532.215454,24.228384 540.251648,21.837484 
	C553.271484,17.963915 566.181274,13.721750 579.187988,9.802521 
	C586.094482,7.721427 586.405518,8.295686 585.104187,15.121729 
	C582.939392,26.477390 581.123535,37.899590 578.699097,49.864899 
	C576.842468,58.020153 575.447449,65.604279 574.052368,73.188400 
	C573.438660,76.246094 572.824890,79.303787 571.780884,82.963425 
	C570.264404,90.417809 569.178101,97.270264 568.091858,104.122719 
	C568.091858,104.122719 568.066711,104.021622 567.795898,104.225388 
	C567.365845,105.676888 567.206604,106.924629 567.047363,108.172371 
	C567.047363,108.172371 567.058838,108.589127 566.737183,109.037888 
	C564.957764,117.707130 563.499939,125.927605 562.042175,134.148087 
	C560.586853,142.659668 559.210754,151.185806 557.649414,159.677917 
	C556.536316,165.732224 555.174316,171.740784 553.652466,179.075363 
	C551.094482,177.331543 549.072510,176.371765 547.595154,174.874588 
	C540.608643,167.794556 533.833801,160.505768 526.852417,153.420547 
	C523.626770,150.146957 520.093811,147.176865 516.714478,144.053772 
	C514.037048,141.579315 512.584595,143.950607 510.968140,145.511368 
	C497.890503,158.138290 485.111664,171.090912 471.706055,183.358887 
	C425.918884,225.260452 374.650177,259.258209 319.142334,287.651001 
	C314.427399,289.713684 310.249451,291.958862 306.071503,294.204041 
	C306.071503,294.204041 306.030334,294.118988 305.714661,294.076172 
	C304.628998,294.433868 303.859009,294.834351 303.089050,295.234833 
	C303.089050,295.234833 303.058533,295.124115 302.776245,295.112000 
	C302.032623,295.485199 301.571320,295.870483 301.110016,296.255737 
	C301.110016,296.255737 301.059387,296.171021 300.778442,296.132568 
	C300.033417,296.474609 299.569366,296.855103 299.105286,297.235565 
	C299.105286,297.235565 299.034668,297.121185 298.712036,297.087585 
	C295.944275,298.429352 293.499176,299.804688 291.054077,301.179993 
	C291.054077,301.179993 291.022583,301.093475 290.707336,301.064148 
	C289.619476,301.426239 288.846863,301.817719 288.074249,302.209167 
	C288.074249,302.209167 288.071991,302.097900 287.743439,302.075500 
	C286.299866,302.771088 285.184875,303.489075 284.069855,304.207062 
	C284.069855,304.207062 284.035370,304.109863 283.731659,304.099548 
	C282.876343,304.484283 282.324738,304.879333 281.773132,305.274384 
	C275.414185,308.142761 269.055267,311.011139 262.182556,313.669037 
	C261.151855,313.727203 260.634888,313.995819 260.117920,314.264465 
	C260.117920,314.264465 260.053864,314.189514 259.701660,314.119446 
	C253.915009,316.422485 248.480530,318.795593 243.046051,321.168701 
	C243.046051,321.168701 243.026016,321.078613 242.721497,321.055481 
	C241.613724,321.349457 240.810486,321.666626 240.007233,321.983765 
	C240.007233,321.983765 239.598969,322.059448 238.998047,322.037994 
	C235.961853,323.086945 233.526566,324.157349 231.091293,325.227753 
	C231.091293,325.227753 231.022400,325.158203 230.712158,325.101013 
	C229.632812,325.440247 228.863693,325.836700 228.094574,326.233124 
	C228.094574,326.233124 228.009506,326.136993 227.674789,326.096375 
	C223.899734,327.415924 220.459412,328.776093 217.019073,330.136261 
	C217.019073,330.136261 217.028091,330.043945 216.759674,330.049438 
	C215.996185,330.364838 215.501099,330.674744 215.006012,330.984650 
	C215.006012,330.984650 214.619568,331.078400 214.001968,331.043915 
	C206.602264,333.400330 199.820160,335.791199 193.038040,338.182068 
	C193.038040,338.182068 193.007782,338.092285 192.637909,338.062073 
	C189.176987,339.025177 186.085922,340.018463 182.994873,341.011780 
	C182.994873,341.011780 182.620102,341.089996 182.184052,341.134674 
	C181.513489,341.410614 181.278961,341.641846 181.044434,341.873077 
	C173.602539,343.879852 166.160660,345.886627 158.072021,347.615662 
	C157.114838,347.236450 156.776245,346.996826 156.498016,347.053497 
	C146.280396,349.134979 136.067947,351.241943 125.867271,353.404266 
	C125.816856,353.414948 125.943779,354.262268 125.987892,354.718872 
	C119.469986,355.491058 112.930244,356.115143 106.439575,357.072083 
	C97.881226,358.333801 89.381447,359.998962 80.816460,361.206879 
	C76.594109,361.802338 72.281845,361.760315 67.075607,362.006073 
	C55.780941,362.005402 45.420933,362.005402 35.060921,362.005402 
	C37.002953,360.845978 39.040565,360.454346 41.066750,360.010529 
	C48.712631,358.335754 56.354794,356.644012 64.419846,354.978302 
	C71.931259,353.464111 79.032318,351.977905 86.094475,350.325409 
	C86.831650,350.152924 87.338478,348.995941 87.952164,348.295746 
	C90.402603,347.593597 92.853043,346.891449 95.832855,346.379608 
	C96.888680,346.316956 97.415146,346.063995 97.941612,345.811035 
	C97.941612,345.811035 97.971222,345.902374 98.362358,345.940430 
	C103.143364,344.585663 107.533226,343.192871 111.923096,341.800110 
	C111.923096,341.800110 111.958260,341.885956 112.273262,341.932678 
	C113.386032,341.610321 114.183807,341.241241 114.981583,340.872162 
	C114.981583,340.872162 114.983673,340.954865 115.325302,340.962585 
	C116.761414,340.592133 117.855888,340.213959 118.950356,339.835754 
	C118.950356,339.835754 119.003067,339.901123 119.348053,339.930054 
	C120.447609,339.436005 121.202187,338.912994 121.956757,338.389954 
	C135.407196,333.318085 148.857635,328.246216 162.886017,323.393433 
	C166.958450,322.014832 170.452957,320.417145 173.947464,318.819458 
	C173.947464,318.819458 173.979950,318.907043 174.326080,318.938141 
	C176.767197,317.924622 178.862198,316.880005 180.957214,315.835419 
	C180.957214,315.835419 180.970993,315.928070 181.286179,315.948853 
	C182.378235,315.577026 183.155121,315.184418 183.931992,314.791840 
	C183.931992,314.791840 183.958908,314.890991 184.263992,314.917450 
	C185.617157,314.224030 186.665237,313.504181 187.713318,312.784302 
	C192.537338,310.581299 197.361389,308.378296 202.845612,306.082214 
	C204.655594,305.270599 205.805420,304.552063 206.955231,303.833496 
	C206.955246,303.833527 206.969467,303.924683 207.284943,303.949738 
	C208.376602,303.581909 209.152771,303.188995 209.928955,302.796112 
	C209.928955,302.796112 209.943924,302.902710 210.229675,302.906189 
	C210.976120,302.527649 211.436783,302.145630 211.897461,301.763611 
	C211.897476,301.763641 211.967926,301.864624 212.175568,301.813416 
	C212.576263,301.464386 212.769287,301.166504 212.962311,300.868652 
	C212.962311,300.868652 212.971527,300.949646 213.254013,300.936462 
	C214.016739,300.573395 214.496964,300.223511 214.977203,299.873627 
	C214.977203,299.873627 214.979309,299.955780 215.296661,299.958679 
	C216.387650,299.580139 217.161301,299.198761 217.934967,298.817383 
	C217.934967,298.817383 217.969299,298.926117 218.272949,298.918518 
	C219.689331,298.208099 220.802078,297.505310 221.914825,296.802490 
	C221.914825,296.802490 221.970978,296.924500 222.245941,296.920532 
	C222.979935,296.532867 223.438965,296.149170 223.897980,295.765472 
	C223.897980,295.765472 223.968903,295.866119 224.176178,295.811829 
	C224.575134,295.457214 224.766830,295.156952 224.958527,294.856659 
	C224.958527,294.856659 224.965561,294.940674 225.284271,294.957153 
	C226.395325,294.597717 227.187668,294.221802 227.980011,293.845886 
	C240.428207,286.621674 252.876389,279.397491 265.831085,272.341400 
	C267.166748,271.914032 267.995911,271.318512 268.825073,270.722992 
	C268.825073,270.722992 268.924713,270.806763 269.148682,270.778809 
	C269.552948,270.435425 269.733246,270.120026 269.913544,269.804596 
	C269.913544,269.804596 269.936554,269.898621 270.266418,269.928345 
	C271.376312,269.263031 272.156372,268.567993 272.936401,267.872925 
	C272.936401,267.872925 272.972717,267.950775 273.257202,267.942200 
	C274.010193,267.559692 274.478668,267.185730 274.947144,266.811768 
	C274.947144,266.811768 274.944336,266.915588 275.226685,266.921692 
	C275.974792,266.545532 276.440552,266.163300 276.906311,265.781067 
	C276.906311,265.781067 276.960114,265.884186 277.167786,265.819366 
	C277.567596,265.453949 277.759766,265.153320 277.951935,264.852722 
	C277.951935,264.852722 277.954437,264.938507 278.242310,264.936188 
	C278.999725,264.556763 279.469269,264.179626 279.938812,263.802490 
	C279.938812,263.802490 279.938049,263.905212 280.221405,263.914795 
	C280.967377,263.539917 281.429962,263.155396 281.892548,262.770874 
	C281.892548,262.770874 281.948822,262.872437 282.161316,262.811127 
	C282.561310,262.441711 282.748840,262.133636 282.936340,261.825562 
	C282.936371,261.825562 282.945831,261.918213 283.230438,261.922363 
	C283.978638,261.546326 284.442200,261.166168 284.905762,260.786011 
	C284.905762,260.786011 284.974579,260.878937 285.187134,260.806763 
	C285.581848,260.416687 285.764008,260.098785 285.946167,259.780884 
	C290.581482,256.958466 295.331268,254.305939 299.827301,251.276810 
	C308.172699,245.654221 316.651978,240.172806 324.571289,233.987076 
	C341.974030,220.393906 359.334076,206.719101 376.182220,192.452545 
	C387.135376,183.177719 397.572479,173.198456 407.475708,162.805771 
	C417.115479,152.689560 425.951996,141.785309 434.828491,130.970398 
	C444.758087,118.872360 454.336121,106.485786 464.628845,93.517075 
	C453.076660,83.107613 441.758453,72.910500 430.443787,62.709484 
	C429.825562,62.152130 429.212952,61.584969 428.637817,60.984005 
	C423.803009,55.931602 424.314209,53.928005 430.897736,52.149765 
	C432.343109,51.759361 433.806183,51.434429 435.883392,51.349510 
	C440.119537,50.866837 443.790955,50.311859 447.324799,49.283993 
	C449.316681,48.704632 451.081879,47.346027 452.949188,46.338451 
	C462.060394,43.599262 471.171600,40.860073 480.906647,38.386162 
	C488.178741,37.008743 494.865448,35.504299 501.460266,33.669491 
	C505.186981,32.632637 508.762634,31.052626 512.406311,29.717268 
	C512.406311,29.717270 512.517029,29.809872 512.851868,29.887129 
	C514.105530,29.422421 515.024353,28.880457 515.943176,28.338493 
z"/>
<path fill="#21AF69" opacity="1.000000" stroke="none" 
	d="
M555.498962,478.820007 
	C580.815063,471.661926 603.501038,459.621490 623.361084,442.313904 
	C624.468567,441.348724 625.784973,440.625122 626.992310,439.772278 
	C632.143188,436.134003 636.283630,432.080780 636.395386,424.987396 
	C636.549011,415.238922 637.276794,405.497467 637.855652,395.758759 
	C638.109619,391.485413 638.603149,387.226349 639.258423,382.232727 
	C639.999207,367.154541 640.469543,352.804382 640.939819,338.454254 
	C640.696106,337.960968 640.452393,337.467682 640.641663,336.500366 
	C640.828552,335.040619 640.582458,334.054962 640.336304,333.069305 
	C640.596069,323.326813 640.855774,313.584290 641.507812,303.401428 
	C642.278320,303.009918 642.656372,303.058716 643.031006,303.419922 
	C645.059326,303.821564 647.091187,303.986877 649.123108,303.988190 
	C669.065735,304.000977 689.008301,303.986481 708.968506,304.353516 
	C709.005920,305.475555 709.025696,306.223755 709.027954,307.301270 
	C709.294739,308.400818 709.579224,309.171051 709.863708,309.941254 
	C709.895874,310.129028 709.927979,310.316833 709.700684,310.910492 
	C709.229675,311.558380 709.092590,311.837006 709.029968,312.152252 
	C709.024048,312.582611 709.018127,313.012939 708.666687,314.062317 
	C708.520813,319.775269 708.720520,324.869202 708.920227,329.963104 
	C708.963440,330.425812 709.006653,330.888489 708.703552,331.818970 
	C708.275330,333.213379 708.193420,334.139984 708.111511,335.066620 
	C707.734131,348.084290 707.356689,361.101990 706.518921,374.679321 
	C705.707825,376.259705 705.118591,377.263702 705.045959,378.303802 
	C704.634827,384.188354 704.099915,390.081055 704.087158,395.972015 
	C704.074158,401.968384 704.616760,407.965973 704.916138,413.963013 
	C705.486755,415.012909 706.057373,416.062836 707.028137,417.736633 
	C709.209351,418.563293 710.990112,418.939178 712.771667,418.942749 
	C736.198730,418.989624 759.625916,418.984009 783.053040,418.991577 
	C788.706543,418.979736 794.360046,418.967896 800.752686,419.233063 
	C804.684631,419.299011 807.877319,419.087982 811.070068,418.876953 
	C811.815063,418.914856 812.559998,418.952789 813.790894,419.386414 
	C813.860657,425.660248 813.185120,431.534882 813.106384,437.417542 
	C813.037048,442.598938 813.634705,447.789276 813.937866,452.975647 
	C813.972046,453.434814 814.006287,453.893982 813.634827,454.888611 
	C812.510254,461.640381 811.791321,467.856720 811.061279,474.526550 
	C811.050232,477.879578 811.050232,480.779144 811.050232,483.989136 
	C782.730225,483.989136 755.363037,483.989136 727.700317,483.695374 
	C720.778564,483.269592 714.152161,483.072479 707.526184,483.087311 
	C706.690979,483.089172 705.858276,484.205688 705.024414,484.805756 
	C704.431213,485.356201 703.838074,485.906616 702.736816,486.799072 
	C702.336060,489.411469 702.443420,491.681793 702.550781,493.952148 
	C702.556396,494.484253 702.562012,495.016357 702.375610,496.073700 
	C702.114258,496.803986 702.069031,497.014221 702.047852,497.229614 
	C701.705627,506.190369 701.363403,515.151123 700.557983,524.664429 
	C699.731934,526.072144 699.083679,526.915710 699.048340,527.784241 
	C698.316223,545.803345 697.494202,563.821716 697.095520,581.849243 
	C697.001953,586.076965 695.752808,587.232361 691.694885,587.052551 
	C680.119202,586.539368 668.528442,586.364441 656.480652,586.046753 
	C647.133118,586.037109 638.248596,586.037109 629.539185,586.037109 
	C629.012939,580.464417 628.569397,575.767151 628.125854,571.069885 
	C629.063660,554.908264 630.165466,538.753845 630.875977,522.582214 
	C631.283447,513.309143 631.120544,504.007782 631.078125,494.719757 
	C631.063538,491.522827 630.636047,488.327789 629.994751,484.468353 
	C627.671082,483.539337 625.750305,483.046997 623.828552,483.042786 
	C599.404663,482.989014 574.980652,483.005310 550.556641,483.003845 
	C549.020386,483.003754 547.484070,483.003876 545.947815,483.003876 
	C545.928711,482.730682 545.909607,482.457520 545.890564,482.184326 
	C547.594727,481.425507 549.298889,480.666687 551.003052,479.907867 
	C551.003052,479.907867 550.998657,479.979401 551.369812,479.972290 
	C552.993652,479.583496 554.246277,479.201752 555.498962,478.820007 
z"/>
<path fill="#DBDADA" opacity="1.000000" stroke="none" 
	d="
M328.000000,71.004776 
	C350.452820,71.005188 372.405670,71.005188 394.358490,71.005188 
	C394.358063,71.233025 394.357666,71.460854 394.357239,71.688690 
	C326.459412,71.688690 258.561554,71.688690 190.663727,71.688690 
	C190.662613,71.460579 190.661499,71.232468 190.660385,71.004356 
	C236.273590,71.004356 281.886810,71.004356 328.000000,71.004776 
z"/>
<path fill="#26C476" opacity="1.000000" stroke="none" 
	d="
M656.943604,586.056335 
	C668.528442,586.364441 680.119202,586.539368 691.694885,587.052551 
	C695.752808,587.232361 697.001953,586.076965 697.095520,581.849243 
	C697.494202,563.821716 698.316223,545.803345 699.048340,527.784241 
	C699.083679,526.915710 699.731934,526.072144 700.480225,525.119873 
	C699.961548,545.917786 699.057495,566.812744 698.147705,587.839111 
	C684.383118,587.839111 671.126221,587.839111 657.405029,587.465820 
	C656.941772,586.747070 656.942688,586.401733 656.943604,586.056335 
z"/>
<path fill="#26C677" opacity="1.000000" stroke="none" 
	d="
M63.998352,354.958618 
	C56.354794,356.644012 48.712631,358.335754 41.066750,360.010529 
	C39.040565,360.454346 37.002953,360.845978 35.060921,362.005402 
	C45.420933,362.005402 55.780941,362.005402 66.616051,362.015442 
	C62.918022,362.620941 58.754997,363.628174 54.569782,363.730865 
	C44.083187,363.988098 33.586510,363.849091 23.093958,363.827454 
	C22.003077,363.825226 20.912771,363.544495 19.755934,362.250000 
	C34.239098,359.563721 48.722260,356.877411 63.605423,354.393982 
	C64.005424,354.596802 63.998352,354.958649 63.998352,354.958618 
M29.762941,362.955902 
	C30.196060,362.835968 30.629179,362.716034 31.062298,362.596100 
	C30.961962,362.378418 30.861628,362.160767 30.761292,361.943085 
	C30.254902,362.255188 29.748512,362.567322 29.762941,362.955902 
z"/>
<path fill="#26CB78" opacity="1.000000" stroke="none" 
	d="
M138.505646,609.166687 
	C139.212860,610.591309 140.046494,612.325623 139.902222,613.974365 
	C139.096741,623.178711 137.893341,632.349060 137.130829,641.556274 
	C135.957565,655.723267 135.031372,669.910706 133.691650,684.544312 
	C132.977371,684.997559 132.571808,684.995911 132.166229,684.994263 
	C133.168884,672.499268 134.177841,660.004761 135.172424,647.509155 
	C136.182495,634.818970 137.178421,622.127625 138.505646,609.166687 
z"/>
<path fill="#0C0D0D" opacity="1.000000" stroke="none" 
	d="
M563.000000,742.997559 
	C546.394409,742.997559 530.288757,742.997559 514.183167,742.997559 
	C514.183533,742.770508 514.183960,742.543457 514.184387,742.316406 
	C555.390198,742.316406 596.596008,742.316406 637.801880,742.316406 
	C637.803955,742.543457 637.806091,742.770508 637.808167,742.997559 
	C613.038818,742.997559 588.269409,742.997559 563.000000,742.997559 
z"/>
<path fill="#25C876" opacity="1.000000" stroke="none" 
	d="
M158.966248,388.974854 
	C158.317139,394.848022 157.519882,400.709351 157.048492,406.596802 
	C155.932739,420.531769 154.986801,434.480255 153.905975,448.418182 
	C153.849075,449.151886 153.179169,449.838104 152.465637,450.747406 
	C153.233078,436.722931 154.317383,422.496521 155.431412,408.272430 
	C155.937225,401.814209 156.501938,395.360626 157.332382,388.574585 
	C158.071976,388.487732 158.519119,388.731293 158.966248,388.974854 
z"/>
<path fill="#2AE487" opacity="1.000000" stroke="none" 
	d="
M727.995850,483.989136 
	C755.363037,483.989136 782.730225,483.989136 811.050232,483.989136 
	C811.050232,480.779144 811.050232,477.879578 811.436951,474.517822 
	C812.074280,474.043030 812.324951,474.030396 812.575684,474.017792 
	C812.326172,477.781006 812.076660,481.544250 811.850464,484.955444 
	C783.994629,484.955444 756.475769,484.955444 728.482788,484.686401 
	C728.008667,484.417328 727.995850,483.989136 727.995850,483.989136 
z"/>
<path fill="#2EE88A" opacity="1.000000" stroke="none" 
	d="
M550.592773,479.846527 
	C549.298889,480.666687 547.594727,481.425507 545.890564,482.184326 
	C545.909607,482.457520 545.928711,482.730682 545.947815,483.003876 
	C547.484070,483.003876 549.020386,483.003754 550.556641,483.003845 
	C574.980652,483.005310 599.404663,482.989014 623.828552,483.042786 
	C625.750305,483.046997 627.671082,483.539337 629.795654,484.197266 
	C628.029846,484.427490 626.060974,484.128479 624.091431,484.123718 
	C598.880615,484.062714 573.669617,484.069641 548.459106,483.960052 
	C546.648499,483.952179 544.841370,483.171356 543.032593,482.749969 
	C543.072388,482.185150 543.112183,481.620331 543.151978,481.055511 
	C545.495483,480.632080 547.838928,480.208649 550.592773,479.846527 
z"/>
<path fill="#26C977" opacity="1.000000" stroke="none" 
	d="
M282.391418,430.923950 
	C282.984619,416.681854 283.888580,402.198700 284.892395,387.722504 
	C285.113220,384.537811 285.688690,381.377747 286.485138,378.115265 
	C285.492340,395.577942 284.115234,413.131683 282.391418,430.923950 
z"/>
<path fill="#2AE688" opacity="1.000000" stroke="none" 
	d="
M709.045532,306.971954 
	C709.025696,306.223755 709.005920,305.475555 708.702576,304.034088 
	C686.624207,303.263062 664.829346,303.185303 643.034485,303.107513 
	C642.656372,303.058716 642.278320,303.009918 641.614868,302.938538 
	C642.141418,302.403534 642.951721,301.446533 643.765503,301.443512 
	C665.639587,301.362122 687.513977,301.378662 709.984436,301.378662 
	C709.984436,303.267303 709.984436,304.668976 709.713867,306.527161 
	C709.443298,306.983673 709.045532,306.971954 709.045532,306.971954 
z"/>
<path fill="#2DE386" opacity="1.000000" stroke="none" 
	d="
M150.544495,735.902893 
	C151.329956,735.560730 152.573975,735.041443 153.818924,735.039185 
	C179.169769,734.993103 204.520691,735.003357 229.871582,735.019958 
	C230.687073,735.020447 231.502411,735.206970 232.617950,735.583618 
	C205.613220,735.895813 178.308350,735.931213 150.544495,735.902893 
z"/>
<path fill="#2BEE8D" opacity="1.000000" stroke="none" 
	d="
M782.825439,418.619568 
	C759.625916,418.984009 736.198730,418.989624 712.771667,418.942749 
	C710.990112,418.939178 709.209351,418.563293 707.226929,417.975159 
	C730.234497,417.723175 753.443420,417.851105 776.652161,417.999542 
	C778.634521,418.012207 780.616028,418.161682 782.825439,418.619568 
z"/>
<path fill="#26C476" opacity="1.000000" stroke="none" 
	d="
M132.102966,685.439087 
	C132.571808,684.995911 132.977371,684.997559 133.686951,684.998413 
	C133.660172,691.089111 133.374023,697.183472 132.987427,703.271484 
	C132.491013,711.089233 133.235733,718.727600 135.996826,726.498779 
	C134.328186,721.698547 131.613464,716.575928 131.258484,711.294678 
	C130.692886,702.879944 131.698532,694.359558 132.102966,685.439087 
z"/>
<path fill="#141516" opacity="1.000000" stroke="none" 
	d="
M191.000000,741.999512 
	C202.939468,741.999756 214.378922,741.999756 225.818390,741.999756 
	C225.818192,742.225281 225.817978,742.450867 225.817780,742.676392 
	C201.948029,742.676392 178.078278,742.676392 154.208527,742.676392 
	C154.204163,742.450684 154.199783,742.225037 154.195419,741.999329 
	C166.296951,741.999329 178.398468,741.999329 191.000000,741.999512 
z"/>
<path fill="#28C778" opacity="1.000000" stroke="none" 
	d="
M151.172577,458.471985 
	C151.496521,461.879303 152.098846,465.739441 151.901276,469.558167 
	C151.491638,477.475586 150.705017,485.375610 149.953323,493.271332 
	C149.817139,494.701782 149.108002,496.077728 148.371979,497.720764 
	C149.083298,484.943817 150.086029,471.924927 151.172577,458.471985 
z"/>
<path fill="#26CB7B" opacity="1.000000" stroke="none" 
	d="
M704.980042,413.538544 
	C704.616760,407.965973 704.074158,401.968384 704.087158,395.972015 
	C704.099915,390.081055 704.634827,384.188354 705.045959,378.303802 
	C705.118591,377.263702 705.707825,376.259705 706.438354,375.137390 
	C706.594849,380.598480 706.402527,386.162659 706.140442,391.723572 
	C705.804321,398.855103 705.412048,405.984039 704.980042,413.538544 
z"/>
<path fill="#25C475" opacity="1.000000" stroke="none" 
	d="
M813.992249,452.549194 
	C813.634705,447.789276 813.037048,442.598938 813.106384,437.417542 
	C813.185120,431.534882 813.860657,425.660248 814.158203,419.452271 
	C814.695984,420.399567 815.971497,421.707001 815.910645,422.948944 
	C815.433716,432.680664 814.700623,442.399750 813.992249,452.549194 
z"/>
<path fill="#27D480" opacity="1.000000" stroke="none" 
	d="
M640.566223,338.730377 
	C640.469543,352.804382 639.999207,367.154541 639.210632,381.789124 
	C638.589172,380.712158 637.965088,379.334656 638.032654,377.991943 
	C638.686279,364.993439 639.455994,352.000824 640.566223,338.730377 
z"/>
<path fill="#2BE488" opacity="1.000000" stroke="none" 
	d="
M656.480591,586.046753 
	C656.942688,586.401733 656.941772,586.747070 656.946106,587.352234 
	C647.218567,587.612000 637.485718,587.612000 628.031860,587.612000 
	C628.031860,581.779053 628.031860,576.880981 628.078857,571.526367 
	C628.569397,575.767151 629.012939,580.464417 629.539185,586.037109 
	C638.248596,586.037109 647.133118,586.037109 656.480591,586.046753 
z"/>
<path fill="#24CA79" opacity="1.000000" stroke="none" 
	d="
M279.466797,465.857117 
	C279.100555,462.592834 278.802643,459.082855 279.073303,455.617249 
	C279.671906,447.953461 280.556458,440.312012 281.595276,432.362030 
	C281.175140,443.252258 280.484131,454.441895 279.466797,465.857117 
z"/>
<path fill="#26CD79" opacity="1.000000" stroke="none" 
	d="
M126.384384,354.710754 
	C125.943779,354.262268 125.816856,353.414948 125.867271,353.404266 
	C136.067947,351.241943 146.280396,349.134979 156.498016,347.053497 
	C156.776245,346.996826 157.114838,347.236450 157.684998,347.609619 
	C147.556763,350.155060 137.168823,352.428833 126.384384,354.710754 
z"/>
<path fill="#BFC1C1" opacity="1.000000" stroke="none" 
	d="
M322.049622,195.968506 
	C335.481415,195.974533 348.421448,195.974533 361.361450,195.974533 
	C361.357269,196.355606 361.353058,196.736664 361.348877,197.117737 
	C345.082397,197.117737 328.815887,197.117737 312.549408,197.117737 
	C312.544128,196.732651 312.538849,196.347580 312.533569,195.962494 
	C315.541626,195.962494 318.549713,195.962494 322.049622,195.968506 
z"/>
<path fill="#27CE7B" opacity="1.000000" stroke="none" 
	d="
M511.947571,29.687508 
	C508.762634,31.052626 505.186981,32.632637 501.460266,33.669491 
	C494.865448,35.504299 488.178741,37.008743 481.288086,38.375610 
	C491.193420,35.285767 501.341125,32.471760 511.947571,29.687508 
z"/>
<path fill="#29D27F" opacity="1.000000" stroke="none" 
	d="
M158.980011,388.528198 
	C158.519119,388.731293 158.071976,388.487732 157.394760,388.131042 
	C157.340530,387.219055 157.567322,386.427551 157.683350,385.620087 
	C158.170486,382.229980 157.489929,377.757751 159.405258,375.740814 
	C161.374939,373.666565 165.859436,373.955231 169.255173,373.267792 
	C172.332199,372.644867 175.424988,372.099854 178.980103,371.623962 
	C174.913300,373.005463 170.444916,374.895416 165.823990,375.406677 
	C160.043503,376.046265 158.897461,379.337891 159.020401,384.110199 
	C159.054474,385.432892 159.004929,386.757721 158.980011,388.528198 
z"/>
<path fill="#25C073" opacity="1.000000" stroke="none" 
	d="
M727.700317,483.695374 
	C727.995850,483.989136 728.008667,484.417328 728.018921,484.631287 
	C720.671875,484.849854 713.314453,484.854492 705.490723,484.832428 
	C705.858276,484.205688 706.690979,483.089172 707.526184,483.087311 
	C714.152161,483.072479 720.778564,483.269592 727.700317,483.695374 
z"/>
<path fill="#27CE7B" opacity="1.000000" stroke="none" 
	d="
M258.367554,705.880005 
	C258.682465,696.691650 259.344391,687.300476 260.218201,677.458130 
	C260.430115,677.006958 260.834839,677.008789 260.834839,677.008789 
	C260.128052,686.564941 259.421295,696.121033 258.367554,705.880005 
z"/>
<path fill="#26C977" opacity="1.000000" stroke="none" 
	d="
M562.386963,133.975052 
	C563.499939,125.927605 564.957764,117.707130 566.706604,109.244095 
	C565.575684,117.268364 564.153687,125.535194 562.386963,133.975052 
z"/>
<path fill="#26C977" opacity="1.000000" stroke="none" 
	d="
M287.032959,375.563477 
	C286.630249,374.279144 285.921173,372.548889 286.046265,370.881195 
	C286.587982,363.656189 287.373322,356.449493 288.449890,349.133789 
	C288.256653,357.736420 287.683563,366.441376 287.032959,375.563477 
z"/>
<path fill="#26C977" opacity="1.000000" stroke="none" 
	d="
M273.020630,526.002441 
	C274.040588,518.073242 275.060577,510.144012 276.458282,502.122070 
	C275.888428,509.756744 274.940857,517.484192 273.710999,525.606567 
	C273.428650,526.001526 273.020630,526.002441 273.020630,526.002441 
z"/>
<path fill="#26CB7B" opacity="1.000000" stroke="none" 
	d="
M64.419846,354.978333 
	C63.998352,354.958649 64.005424,354.596802 64.005615,354.415863 
	C71.741074,352.276245 79.476357,350.317535 87.581902,348.327301 
	C87.338478,348.995941 86.831650,350.152924 86.094475,350.325409 
	C79.032318,351.977905 71.931259,353.464111 64.419846,354.978333 
z"/>
<path fill="#26C476" opacity="1.000000" stroke="none" 
	d="
M260.918274,676.604492 
	C260.834839,677.008789 260.430115,677.006958 260.228027,677.009216 
	C260.800415,669.208496 261.574860,661.405457 262.626984,653.322021 
	C262.270294,660.761108 261.635986,668.480591 260.918274,676.604492 
z"/>
<path fill="#27CA7A" opacity="1.000000" stroke="none" 
	d="
M574.379150,72.979691 
	C575.447449,65.604279 576.842468,58.020153 578.555847,50.243851 
	C577.484802,57.624767 576.095398,65.197868 574.379150,72.979691 
z"/>
<path fill="#26C977" opacity="1.000000" stroke="none" 
	d="
M265.927795,620.534424 
	C265.896484,616.588501 265.801392,612.233582 266.052612,607.898743 
	C266.289978,603.803894 266.891327,599.730103 267.605957,595.351501 
	C267.257996,603.415344 266.636658,611.774719 265.927795,620.534424 
z"/>
<path fill="#27CB79" opacity="1.000000" stroke="none" 
	d="
M193.438156,338.166321 
	C199.820160,335.791199 206.602264,333.400330 213.803314,331.035461 
	C207.427612,333.424530 200.632950,335.787567 193.438156,338.166321 
z"/>
<path fill="#26CB7B" opacity="1.000000" stroke="none" 
	d="
M273.009766,526.442017 
	C273.020630,526.002441 273.428650,526.001526 273.632660,526.001770 
	C273.552155,533.022766 273.267639,540.043457 272.910583,547.497070 
	C272.695709,542.714478 272.491852,537.499451 272.444824,532.283081 
	C272.428589,530.484375 272.802979,528.682190 273.009766,526.442017 
z"/>
<path fill="#26CB78" opacity="1.000000" stroke="none" 
	d="
M277.376404,491.902649 
	C277.474487,484.973999 277.907928,477.795013 278.615356,470.333771 
	C278.496826,477.251801 278.104309,484.452057 277.376404,491.902649 
z"/>
<path fill="#25C475" opacity="1.000000" stroke="none" 
	d="
M812.712708,473.645386 
	C812.324951,474.030396 812.074280,474.043030 811.447998,474.064331 
	C811.791321,467.856720 812.510254,461.640381 813.567261,455.228516 
	C813.553467,461.112946 813.201599,467.192963 812.712708,473.645386 
z"/>
<path fill="#26CB7B" opacity="1.000000" stroke="none" 
	d="
M243.428619,321.129852 
	C248.480530,318.795593 253.915009,316.422485 259.747040,314.100159 
	C254.700119,316.464294 249.255661,318.777649 243.428619,321.129852 
z"/>
<path fill="#27CA7A" opacity="1.000000" stroke="none" 
	d="
M568.413330,103.897614 
	C569.178101,97.270264 570.264404,90.417809 571.618774,83.308212 
	C570.836182,89.924866 569.785522,96.798683 568.413330,103.897614 
z"/>
<path fill="#27CA7A" opacity="1.000000" stroke="none" 
	d="
M452.583771,46.369923 
	C451.081879,47.346027 449.316681,48.704632 447.324799,49.283993 
	C443.790955,50.311859 440.119537,50.866837 436.270203,51.349869 
	C441.429260,49.520515 446.823822,47.960957 452.583771,46.369923 
z"/>
<path fill="#666869" opacity="1.000000" stroke="none" 
	d="
M696.450684,594.112305 
	C697.662781,594.213440 698.444702,594.283081 699.226624,594.352722 
	C699.223877,594.486755 699.221130,594.620789 699.218384,594.754822 
	C691.107544,594.754822 682.996704,594.754822 674.885864,594.754822 
	C674.878357,594.530151 674.870850,594.305542 674.863403,594.080872 
	C681.915771,594.080872 688.968079,594.080872 696.450684,594.112305 
z"/>
<path fill="#27CA7A" opacity="1.000000" stroke="none" 
	d="
M306.441956,294.163086 
	C310.249451,291.958862 314.427399,289.713684 318.799103,287.727295 
	C314.932709,290.031433 310.872528,292.076782 306.441956,294.163086 
z"/>
<path fill="#26CB7B" opacity="1.000000" stroke="none" 
	d="
M111.528305,341.842468 
	C107.533226,343.192871 103.143364,344.585663 98.314415,345.943115 
	C102.294731,344.566803 106.714134,343.225830 111.528305,341.842468 
z"/>
<path fill="#25C475" opacity="1.000000" stroke="none" 
	d="
M810.815063,418.550873 
	C807.877319,419.087982 804.684631,419.299011 801.216003,419.204956 
	C804.146729,418.674835 807.353394,418.449829 810.815063,418.550873 
z"/>
<path fill="#26CD79" opacity="1.000000" stroke="none" 
	d="
M173.573059,318.862213 
	C170.452957,320.417145 166.958450,322.014832 163.248413,323.344299 
	C166.421478,321.685730 169.810074,320.295349 173.573059,318.862213 
z"/>
<path fill="#26C977" opacity="1.000000" stroke="none" 
	d="
M217.418152,330.114868 
	C220.459412,328.776093 223.899734,327.415924 227.735733,326.116516 
	C224.693344,327.482697 221.255295,328.788086 217.418152,330.114868 
z"/>
<path fill="#26D07C" opacity="1.000000" stroke="none" 
	d="
M708.971252,329.501160 
	C708.720520,324.869202 708.520813,319.775269 708.590698,314.376221 
	C708.914185,319.060455 708.968262,324.049835 708.971252,329.501160 
z"/>
<path fill="#25C073" opacity="1.000000" stroke="none" 
	d="
M702.686279,493.536255 
	C702.443420,491.681793 702.336060,489.411469 702.599060,487.072876 
	C702.920227,489.043213 702.870972,491.081787 702.686279,493.536255 
z"/>
<path fill="#27CA7A" opacity="1.000000" stroke="none" 
	d="
M291.420593,301.143402 
	C293.499176,299.804688 295.944275,298.429352 298.771606,297.118713 
	C296.698242,298.491241 294.242706,299.799011 291.420593,301.143402 
z"/>
<path fill="#27CB79" opacity="1.000000" stroke="none" 
	d="
M183.390808,341.063782 
	C186.085922,340.018463 189.176987,339.025177 192.684799,338.055298 
	C189.996613,339.091095 186.891663,340.103485 183.390808,341.063782 
z"/>
<path fill="#26C977" opacity="1.000000" stroke="none" 
	d="
M231.474670,325.297150 
	C233.526566,324.157349 235.961853,323.086945 238.790466,322.034302 
	C236.741882,323.156921 234.299957,324.261749 231.474670,325.297150 
z"/>
<path fill="#26CD79" opacity="1.000000" stroke="none" 
	d="
M180.593872,315.875488 
	C178.862198,316.880005 176.767197,317.924622 174.279816,318.944550 
	C176.001785,317.918396 178.116150,316.916962 180.593872,315.875488 
z"/>
<path fill="#26CD79" opacity="1.000000" stroke="none" 
	d="
M187.387985,312.835175 
	C186.665237,313.504181 185.617157,314.224030 184.217499,314.895630 
	C184.931488,314.193542 185.997070,313.539764 187.387985,312.835175 
z"/>
<path fill="#27D480" opacity="1.000000" stroke="none" 
	d="
M640.251465,333.404510 
	C640.582458,334.054962 640.828552,335.040619 640.780396,336.230286 
	C640.379578,335.536133 640.273071,334.637909 640.251465,333.404510 
z"/>
<path fill="#27CA7A" opacity="1.000000" stroke="none" 
	d="
M284.415588,304.177795 
	C285.184875,303.489075 286.299866,302.771088 287.782745,302.114868 
	C287.020844,302.833954 285.891083,303.491272 284.415588,304.177795 
z"/>
<path fill="#27CE7B" opacity="1.000000" stroke="none" 
	d="
M515.605042,28.349913 
	C515.024353,28.880457 514.105530,29.422421 512.810791,29.946459 
	C513.378906,29.406132 514.322876,28.883732 515.605042,28.349913 
z"/>
<path fill="#27CA7A" opacity="1.000000" stroke="none" 
	d="
M272.626526,267.943787 
	C272.156372,268.567993 271.376312,269.263031 270.220581,269.912781 
	C270.668823,269.249908 271.492767,268.632294 272.626526,267.943787 
z"/>
<path fill="#27CA7A" opacity="1.000000" stroke="none" 
	d="
M268.504883,270.682312 
	C267.995911,271.318512 267.166748,271.914032 266.171082,272.259308 
	C266.731323,271.553284 267.458008,271.097473 268.504883,270.682312 
z"/>
<path fill="#26D07C" opacity="1.000000" stroke="none" 
	d="
M708.394104,334.881439 
	C708.193420,334.139984 708.275330,333.213379 708.632629,332.161865 
	C708.830933,332.923401 708.753845,333.809814 708.394104,334.881439 
z"/>
<path fill="#27CD7D" opacity="1.000000" stroke="none" 
	d="
M221.566040,296.707947 
	C220.802078,297.505310 219.689331,298.208099 218.226990,298.884766 
	C218.990707,298.110199 220.103989,297.361786 221.566040,296.707947 
z"/>
<path fill="#27CD7D" opacity="1.000000" stroke="none" 
	d="
M206.606216,303.879272 
	C205.805420,304.552063 204.655594,305.270599 203.129974,305.961975 
	C203.921875,305.264893 205.089539,304.594971 206.606216,303.879272 
z"/>
<path fill="#26CB7B" opacity="1.000000" stroke="none" 
	d="
M118.589867,339.747467 
	C117.855888,340.213959 116.761414,340.592133 115.284378,340.956665 
	C116.011009,340.515045 117.120193,340.087128 118.589867,339.747467 
z"/>
<path fill="#2EE88A" opacity="1.000000" stroke="none" 
	d="
M555.073425,478.779785 
	C554.246277,479.201752 552.993652,479.583496 551.335693,479.961243 
	C552.169617,479.551331 553.408752,479.145416 555.073425,478.779785 
z"/>
<path fill="#27CA7A" opacity="1.000000" stroke="none" 
	d="
M567.374023,107.974030 
	C567.206604,106.924629 567.365845,105.676888 567.847900,104.223114 
	C568.014099,105.269951 567.857422,106.522820 567.374023,107.974030 
z"/>
<path fill="#27CD7D" opacity="1.000000" stroke="none" 
	d="
M209.590027,302.689697 
	C209.152771,303.188995 208.376602,303.581909 207.239014,303.945282 
	C207.668777,303.471619 208.459930,303.027466 209.590027,302.689697 
z"/>
<path fill="#26CB7B" opacity="1.000000" stroke="none" 
	d="
M240.347672,322.061279 
	C240.810486,321.666626 241.613724,321.349457 242.767639,321.056305 
	C242.308243,321.433136 241.498169,321.785980 240.347672,322.061279 
z"/>
<path fill="#27CA7A" opacity="1.000000" stroke="none" 
	d="
M303.428528,295.332214 
	C303.859009,294.834351 304.628998,294.433868 305.761108,294.067627 
	C305.338165,294.544464 304.553070,294.987030 303.428528,295.332214 
z"/>
<path fill="#27CD7D" opacity="1.000000" stroke="none" 
	d="
M227.633881,293.879852 
	C227.187668,294.221802 226.395325,294.597717 225.242706,294.950195 
	C225.684189,294.589081 226.485977,294.251434 227.633881,293.879852 
z"/>
<path fill="#27CD7D" opacity="1.000000" stroke="none" 
	d="
M217.604507,298.697632 
	C217.161301,299.198761 216.387650,299.580139 215.256058,299.952393 
	C215.690094,299.488129 216.482071,299.033020 217.604507,298.697632 
z"/>
<path fill="#26CB7B" opacity="1.000000" stroke="none" 
	d="
M114.628304,340.884827 
	C114.183807,341.241241 113.386032,341.610321 112.227264,341.926697 
	C112.669182,341.548523 113.472107,341.223022 114.628304,340.884827 
z"/>
<path fill="#26CB7B" opacity="1.000000" stroke="none" 
	d="
M121.601273,338.475891 
	C121.202187,338.912994 120.447609,339.436005 119.306091,339.931000 
	C119.694695,339.455933 120.470245,339.008911 121.601273,338.475891 
z"/>
<path fill="#27CA7A" opacity="1.000000" stroke="none" 
	d="
M288.415314,302.271515 
	C288.846863,301.817719 289.619476,301.426239 290.753052,301.058807 
	C290.328156,301.499847 289.542267,301.916870 288.415314,302.271515 
z"/>
<path fill="#26D07C" opacity="1.000000" stroke="none" 
	d="
M709.027954,307.301270 
	C709.045532,306.971954 709.443298,306.983673 709.642212,306.983002 
	C709.888306,307.723328 709.935486,308.464325 709.923157,309.573303 
	C709.579224,309.171051 709.294739,308.400818 709.027954,307.301270 
z"/>
<path fill="#26CD79" opacity="1.000000" stroke="none" 
	d="
M183.589401,314.712952 
	C183.155121,315.184418 182.378235,315.577026 181.239532,315.944702 
	C181.667404,315.491241 182.457108,315.062653 183.589401,314.712952 
z"/>
<path fill="#26C977" opacity="1.000000" stroke="none" 
	d="
M228.443542,326.324829 
	C228.863693,325.836700 229.632812,325.440247 230.761047,325.098358 
	C230.344269,325.574097 229.568390,325.995300 228.443542,326.324829 
z"/>
<path fill="#27CA7A" opacity="1.000000" stroke="none" 
	d="
M301.440796,296.304138 
	C301.571320,295.870483 302.032623,295.485199 302.825256,295.141937 
	C302.694916,295.573486 302.233246,295.963013 301.440796,296.304138 
z"/>
<path fill="#27CA7A" opacity="1.000000" stroke="none" 
	d="
M274.640137,266.848358 
	C274.478668,267.185730 274.010193,267.559692 273.214813,267.935303 
	C273.369659,267.586334 273.851379,267.235626 274.640137,266.848358 
z"/>
<path fill="#27CA7A" opacity="1.000000" stroke="none" 
	d="
M276.587891,265.755737 
	C276.440552,266.163300 275.974792,266.545532 275.177551,266.904755 
	C275.320587,266.497955 275.795044,266.114166 276.587891,265.755737 
z"/>
<path fill="#27CA7A" opacity="1.000000" stroke="none" 
	d="
M279.627197,263.828674 
	C279.469269,264.179626 278.999725,264.556763 278.200745,264.925507 
	C278.352753,264.563019 278.834167,264.208923 279.627197,263.828674 
z"/>
<path fill="#27CA7A" opacity="1.000000" stroke="none" 
	d="
M281.573364,262.722656 
	C281.429962,263.155396 280.967377,263.539917 280.173279,263.896942 
	C280.312561,263.471130 280.783386,263.072784 281.573364,262.722656 
z"/>
<path fill="#27CA7A" opacity="1.000000" stroke="none" 
	d="
M284.589386,260.761169 
	C284.442200,261.166168 283.978638,261.546326 283.185059,261.911865 
	C283.327728,261.510254 283.800354,261.123291 284.589386,260.761169 
z"/>
<path fill="#27CA7A" opacity="1.000000" stroke="none" 
	d="
M299.431671,297.281006 
	C299.569366,296.855103 300.033417,296.474609 300.827759,296.133484 
	C300.691376,296.557404 300.224731,296.941925 299.431671,297.281006 
z"/>
<path fill="#27CD7D" opacity="1.000000" stroke="none" 
	d="
M223.566467,295.687561 
	C223.438965,296.149170 222.979935,296.532867 222.193085,296.879089 
	C222.321823,296.430969 222.778381,296.020294 223.566467,295.687561 
z"/>
<path fill="#26CB7B" opacity="1.000000" stroke="none" 
	d="
M260.436157,314.289490 
	C260.634888,313.995819 261.151855,313.727203 261.819214,313.691772 
	C261.564545,314.054840 261.159485,314.184662 260.436157,314.289490 
z"/>
<path fill="#26CB7B" opacity="1.000000" stroke="none" 
	d="
M97.622726,345.845764 
	C97.415146,346.063995 96.888680,346.316956 96.205841,346.346863 
	C96.467598,346.042694 96.885719,345.961609 97.622726,345.845764 
z"/>
<path fill="#27CD7D" opacity="1.000000" stroke="none" 
	d="
M214.672760,299.908203 
	C214.496964,300.223511 214.016739,300.573395 213.213470,300.932434 
	C213.383057,300.608582 213.875687,300.275665 214.672760,299.908203 
z"/>
<path fill="#27CA7A" opacity="1.000000" stroke="none" 
	d="
M282.119751,305.205322 
	C282.324738,304.879333 282.876343,304.484283 283.783081,304.096069 
	C283.580963,304.447388 283.023682,304.791809 282.119751,305.205322 
z"/>
<path fill="#27CD7D" opacity="1.000000" stroke="none" 
	d="
M211.565735,301.692261 
	C211.436783,302.145630 210.976120,302.527649 210.186279,302.874329 
	C210.316071,302.433014 210.775024,302.026978 211.565735,301.692261 
z"/>
<path fill="#26C977" opacity="1.000000" stroke="none" 
	d="
M215.320618,331.036926 
	C215.501099,330.674744 215.996185,330.364838 216.804352,330.061951 
	C216.623367,330.409027 216.129303,330.749115 215.320618,331.036926 
z"/>
<path fill="#27CA7A" opacity="1.000000" stroke="none" 
	d="
M285.660675,259.879333 
	C285.764008,260.098785 285.581848,260.416687 285.136383,260.834442 
	C285.040436,260.615448 285.207825,260.296600 285.660675,259.879333 
z"/>
<path fill="#27CA7A" opacity="1.000000" stroke="none" 
	d="
M282.637512,261.888367 
	C282.748840,262.133636 282.561310,262.441711 282.104919,262.825012 
	C282.003632,262.583862 282.171173,262.267517 282.637512,261.888367 
z"/>
<path fill="#26D07C" opacity="1.000000" stroke="none" 
	d="
M709.254272,312.040039 
	C709.092590,311.837006 709.229675,311.558380 709.638611,311.189453 
	C709.716919,311.350983 709.597778,311.639404 709.254272,312.040039 
z"/>
<path fill="#27CA7A" opacity="1.000000" stroke="none" 
	d="
M277.665161,264.923950 
	C277.759766,265.153320 277.567596,265.453949 277.111572,265.834106 
	C277.024567,265.607513 277.201477,265.301331 277.665161,264.923950 
z"/>
<path fill="#26C476" opacity="1.000000" stroke="none" 
	d="
M263.270935,651.049561 
	C263.091553,650.829651 263.234772,650.540527 263.675781,650.167358 
	C263.757355,650.338013 263.630707,650.636963 263.270935,651.049561 
z"/>
<path fill="#27CD7D" opacity="1.000000" stroke="none" 
	d="
M212.659943,300.925232 
	C212.769287,301.166504 212.576263,301.464386 212.119934,301.839752 
	C212.023605,301.605438 212.190598,301.293610 212.659943,300.925232 
z"/>
<path fill="#26C977" opacity="1.000000" stroke="none" 
	d="
M268.269135,594.052795 
	C268.091614,593.834961 268.232880,593.545288 268.668945,593.170288 
	C268.751953,593.341431 268.626678,593.640076 268.269135,594.052795 
z"/>
<path fill="#27CA7A" opacity="1.000000" stroke="none" 
	d="
M269.607666,269.859192 
	C269.733246,270.120026 269.552948,270.435425 269.098358,270.820099 
	C268.983307,270.564148 269.142548,270.238953 269.607666,269.859192 
z"/>
<path fill="#27CB79" opacity="1.000000" stroke="none" 
	d="
M181.308167,341.865906 
	C181.278961,341.641846 181.513489,341.410614 181.993484,341.116730 
	C182.016602,341.322327 181.794235,341.590546 181.308167,341.865906 
z"/>
<path fill="#27CD7D" opacity="1.000000" stroke="none" 
	d="
M224.655121,294.921265 
	C224.766830,295.156952 224.575134,295.457214 224.120789,295.838684 
	C224.022659,295.608551 224.187180,295.297211 224.655121,294.921265 
z"/>
<path fill="#25C073" opacity="1.000000" stroke="none" 
	d="
M702.201782,497.110229 
	C702.069031,497.014221 702.114258,496.803986 702.238647,496.452576 
	C702.540649,496.513489 702.561340,496.741699 702.201782,497.110229 
z"/>
<path fill="#26CB78" opacity="1.000000" stroke="none" 
	d="
M276.892700,493.723877 
	C276.686798,493.790802 276.526459,493.643494 276.410400,493.467041 
	C276.384613,493.427826 276.514923,493.285919 276.723572,493.115723 
	C276.873779,493.040161 276.954193,493.499146 276.892700,493.723877 
z"/>
<path fill="#1E9D60" opacity="1.000000" stroke="none" 
	d="
M643.031006,303.419922 
	C664.829346,303.185303 686.624207,303.263062 708.684998,303.660278 
	C689.008301,303.986481 669.065735,304.000977 649.123108,303.988190 
	C647.091187,303.986877 645.059326,303.821564 643.031006,303.419922 
z"/>
<path fill="#21B069" opacity="1.000000" stroke="none" 
	d="
M29.502533,362.917664 
	C29.748512,362.567322 30.254902,362.255188 30.761292,361.943085 
	C30.861628,362.160767 30.961962,362.378418 31.062298,362.596100 
	C30.629179,362.716034 30.196060,362.835968 29.502533,362.917664 
z"/>
</svg>